<?xml version="1.0" standalone="no"?>
<!DOCTYPE svg PUBLIC "-//W3C//DTD SVG 20010904//EN"
 "http://www.w3.org/TR/2001/REC-SVG-20010904/DTD/svg10.dtd">
<svg version="1.0" xmlns="http://www.w3.org/2000/svg"
 width="16.000000pt" height="16.000000pt" viewBox="0 0 16.000000 16.000000"
 preserveAspectRatio="xMidYMid meet">

<g transform="translate(0.000000,16.000000) scale(0.100000,-0.100000)"
fill="#000000" stroke="none">
<path d="M10 128 c0 -2 -2 -31 -4 -65 -4 -59 -3 -63 18 -62 20 0 20 1 1 9
l-20 9 20 0 c17 1 17 3 5 11 -11 7 -12 14 -5 26 6 9 15 16 19 14 5 -1 13 4 17
12 7 10 9 10 9 -2 0 -13 1 -13 10 0 9 13 10 13 10 0 0 -12 2 -12 9 -2 6 11 13
7 30 -15 l23 -28 -24 -6 -23 -7 25 -2 25 -2 -25 -8 -25 -8 28 -1 c28 -1 28 -1
25 57 -3 60 -14 78 -36 60 -18 -15 -61 -15 -89 1 -13 6 -23 10 -23 9z m25 -27
c3 -5 1 -12 -5 -16 -5 -3 -10 1 -10 9 0 18 6 21 15 7z m105 -7 c0 -8 -5 -12
-10 -9 -6 4 -8 11 -5 16 9 14 15 11 15 -7z"/>
<path d="M71 14 c0 -11 3 -14 6 -6 3 7 2 16 -1 19 -3 4 -6 -2 -5 -13z"/>
</g>
</svg>
